<?xml version="1.0" encoding="utf-8"?>
<!-- Generator: Adobe Illustrator 25.2.0, SVG Export Plug-In . SVG Version: 6.00 Build 0)  -->
<svg version="1.1" id="Layer_1" xmlns="http://www.w3.org/2000/svg" xmlns:xlink="http://www.w3.org/1999/xlink" x="0px" y="0px"
	 viewBox="0 0 183.91 62.22" style="enable-background:new 0 0 183.91 62.22;" xml:space="preserve">
<style type="text/css">
	.st0{fill:#00A57B;}
	.st1{fill:#6967AC;}
	.st2{fill:#8D87C0;}
	.st3{fill:#3C4898;}
	.st4{opacity:0.5;fill:#6967AC;}
	.st5{opacity:0.5;fill:#00A57B;}
	.st6{opacity:0.35;}
</style>
<g>
	<polygon class="st0" points="26.4,17.34 38.91,17.34 38.91,11.66 20.69,0 20.69,62.22 38.91,50.56 38.91,44.88 26.4,44.88 	"/>
</g>
<g>
	<polygon class="st1" points="26.4,17.34 38.91,17.34 38.91,11.66 6.9,7.77 6.9,54.45 38.91,50.56 38.91,44.88 26.4,44.88 	"/>
</g>
<g>
	<polygon class="st2" points="26.4,17.34 38.91,17.34 38.91,11.66 13.79,3.89 13.79,58.33 38.91,50.56 38.91,44.88 26.4,44.88 	"/>
</g>
<g>
	<polygon class="st3" points="26.4,17.34 38.91,17.34 38.91,11.66 0,11.66 0,50.56 38.91,50.56 38.91,44.88 26.4,44.88 	"/>
</g>
<g>
	<path d="M37.51,23.76c2.4,0.06,4.21,0.73,5.42,2.02c1.22,1.29,1.82,3.24,1.82,5.87c0,2.62-0.61,4.58-1.82,5.87
		c-1.22,1.29-3.02,1.96-5.42,2.02h-5.46V23.76H37.51z M36.75,38.25c1.13,0,2.11-0.12,2.93-0.36c0.82-0.24,1.49-0.63,2.02-1.16
		c0.53-0.53,0.92-1.22,1.17-2.05c0.25-0.84,0.38-1.85,0.38-3.03c0-1.18-0.13-2.19-0.38-3.03c-0.25-0.84-0.64-1.52-1.17-2.05
		c-0.53-0.53-1.2-0.92-2.02-1.16c-0.82-0.24-1.79-0.36-2.93-0.36h-3.2v13.21H36.75z"/>
	<path d="M48.33,23.76v2.23h-1.39v-2.23H48.33z M48.33,28.13v11.4h-1.39v-11.4H48.33z"/>
	<path d="M53.15,29.3v10.23h-1.39V29.3h-1.94v-1.17h1.94V27.1c0-0.49,0.04-0.93,0.11-1.35c0.07-0.41,0.21-0.77,0.42-1.06
		c0.21-0.29,0.49-0.52,0.85-0.68c0.36-0.16,0.82-0.24,1.38-0.24c0.21,0,0.4,0.01,0.57,0.02c0.18,0.01,0.38,0.04,0.6,0.07v1.19
		c-0.19-0.03-0.37-0.06-0.53-0.08c-0.16-0.02-0.32-0.03-0.49-0.03c-0.38,0-0.68,0.06-0.88,0.18c-0.21,0.12-0.36,0.28-0.45,0.47
		c-0.1,0.2-0.15,0.43-0.17,0.7c-0.01,0.27-0.02,0.55-0.02,0.86v0.99h2.25v1.17H53.15z"/>
	<path d="M58.47,29.3v10.23h-1.39V29.3h-1.94v-1.17h1.94V27.1c0-0.49,0.04-0.93,0.11-1.35c0.07-0.41,0.21-0.77,0.42-1.06
		c0.21-0.29,0.49-0.52,0.85-0.68c0.36-0.16,0.82-0.24,1.38-0.24c0.21,0,0.4,0.01,0.57,0.02c0.18,0.01,0.38,0.04,0.6,0.07v1.19
		c-0.19-0.03-0.37-0.06-0.53-0.08c-0.16-0.02-0.32-0.03-0.49-0.03c-0.38,0-0.68,0.06-0.88,0.18c-0.21,0.12-0.36,0.28-0.45,0.47
		c-0.1,0.2-0.15,0.43-0.17,0.7c-0.01,0.27-0.02,0.55-0.02,0.86v0.99h2.25v1.17H58.47z"/>
	<path d="M63.08,35.77c0.14,0.54,0.36,1.02,0.67,1.45c0.31,0.43,0.7,0.78,1.17,1.06c0.47,0.28,1.04,0.42,1.7,0.42
		c1.02,0,1.81-0.26,2.39-0.79c0.57-0.53,0.97-1.24,1.19-2.12h1.39c-0.29,1.3-0.84,2.3-1.62,3c-0.79,0.71-1.9,1.06-3.35,1.06
		c-0.9,0-1.68-0.16-2.33-0.48c-0.66-0.32-1.19-0.75-1.6-1.3c-0.41-0.55-0.72-1.19-0.92-1.92c-0.2-0.73-0.3-1.5-0.3-2.31
		c0-0.75,0.1-1.49,0.3-2.21c0.2-0.72,0.5-1.37,0.92-1.93c0.41-0.57,0.95-1.02,1.6-1.37c0.66-0.35,1.43-0.52,2.33-0.52
		c0.91,0,1.69,0.18,2.34,0.55c0.65,0.37,1.17,0.85,1.58,1.45c0.4,0.6,0.7,1.28,0.87,2.05c0.18,0.77,0.25,1.56,0.22,2.35h-8.77
		C62.87,34.71,62.94,35.23,63.08,35.77z M69.97,31.51c-0.17-0.49-0.41-0.92-0.72-1.29c-0.31-0.38-0.68-0.68-1.13-0.91
		c-0.44-0.23-0.94-0.34-1.5-0.34c-0.57,0-1.08,0.11-1.52,0.34c-0.44,0.23-0.82,0.53-1.13,0.91c-0.31,0.38-0.56,0.81-0.74,1.3
		c-0.18,0.49-0.31,1-0.36,1.51h7.38C70.23,32.51,70.14,32,69.97,31.51z"/>
	<path d="M74.8,28.13v2.67h0.04c0.35-0.93,0.9-1.64,1.65-2.14c0.74-0.5,1.63-0.73,2.66-0.69v1.39c-0.63-0.03-1.21,0.06-1.72,0.25
		c-0.52,0.2-0.96,0.48-1.34,0.85c-0.38,0.37-0.67,0.81-0.87,1.31c-0.21,0.51-0.31,1.06-0.31,1.67v6.08h-1.39v-11.4H74.8z"/>
	<path d="M81.1,35.77c0.14,0.54,0.36,1.02,0.67,1.45c0.31,0.43,0.7,0.78,1.17,1.06c0.47,0.28,1.04,0.42,1.7,0.42
		c1.02,0,1.81-0.26,2.39-0.79c0.57-0.53,0.97-1.24,1.19-2.12h1.39c-0.29,1.3-0.84,2.3-1.62,3c-0.79,0.71-1.9,1.06-3.35,1.06
		c-0.9,0-1.68-0.16-2.33-0.48c-0.66-0.32-1.19-0.75-1.6-1.3c-0.41-0.55-0.72-1.19-0.92-1.92c-0.2-0.73-0.3-1.5-0.3-2.31
		c0-0.75,0.1-1.49,0.3-2.21c0.2-0.72,0.5-1.37,0.92-1.93c0.41-0.57,0.95-1.02,1.6-1.37c0.66-0.35,1.43-0.52,2.33-0.52
		c0.91,0,1.69,0.18,2.34,0.55c0.65,0.37,1.17,0.85,1.58,1.45c0.4,0.6,0.7,1.28,0.87,2.05c0.18,0.77,0.25,1.56,0.22,2.35h-8.77
		C80.89,34.71,80.96,35.23,81.1,35.77z M88,31.51c-0.17-0.49-0.41-0.92-0.72-1.29c-0.31-0.38-0.68-0.68-1.13-0.91
		c-0.44-0.23-0.94-0.34-1.5-0.34c-0.57,0-1.08,0.11-1.52,0.34c-0.44,0.23-0.82,0.53-1.13,0.91c-0.31,0.38-0.56,0.81-0.74,1.3
		c-0.18,0.49-0.31,1-0.36,1.51h7.38C88.26,32.51,88.16,32,88,31.51z"/>
	<path d="M92.91,28.13v1.97h0.04c0.27-0.69,0.74-1.25,1.41-1.67c0.68-0.42,1.42-0.63,2.23-0.63c0.8,0,1.46,0.1,2,0.31
		c0.54,0.21,0.97,0.5,1.29,0.87c0.32,0.38,0.55,0.84,0.68,1.38c0.13,0.55,0.2,1.16,0.2,1.83v7.33h-1.39v-7.11
		c0-0.49-0.04-0.94-0.13-1.36c-0.09-0.42-0.24-0.78-0.46-1.09c-0.22-0.31-0.52-0.55-0.89-0.73c-0.38-0.18-0.84-0.27-1.4-0.27
		c-0.56,0-1.06,0.1-1.49,0.3c-0.43,0.2-0.8,0.47-1.1,0.82c-0.3,0.35-0.54,0.76-0.71,1.24c-0.17,0.48-0.26,1-0.28,1.56v6.65h-1.39
		v-11.4H92.91z"/>
	<path d="M107.93,28.13v1.17h-2.32v7.69c0,0.46,0.06,0.81,0.19,1.07c0.12,0.26,0.44,0.4,0.94,0.43c0.4,0,0.8-0.02,1.19-0.07v1.17
		c-0.21,0-0.41,0.01-0.62,0.02c-0.21,0.01-0.41,0.02-0.62,0.02c-0.93,0-1.58-0.18-1.94-0.54c-0.37-0.36-0.54-1.03-0.53-2v-7.8h-1.99
		v-1.17h1.99v-3.42h1.39v3.42H107.93z"/>
	<path d="M116.95,23.76c1.02,0,1.96,0.16,2.84,0.49c0.88,0.32,1.63,0.81,2.28,1.46c0.64,0.65,1.14,1.46,1.5,2.43
		c0.36,0.97,0.54,2.11,0.54,3.42c0,1.15-0.15,2.21-0.44,3.18c-0.29,0.97-0.74,1.81-1.34,2.52c-0.6,0.71-1.34,1.26-2.23,1.67
		c-0.89,0.4-1.94,0.61-3.15,0.61h-6.8V23.76H116.95z M116.7,36.62c0.5,0,0.99-0.08,1.46-0.24c0.47-0.16,0.89-0.43,1.26-0.81
		c0.37-0.38,0.66-0.86,0.88-1.47c0.22-0.6,0.33-1.34,0.33-2.21c0-0.8-0.08-1.51-0.23-2.15c-0.15-0.64-0.41-1.19-0.76-1.65
		c-0.35-0.46-0.82-0.81-1.4-1.05c-0.58-0.24-1.3-0.36-2.15-0.36h-2.47v9.94H116.7z"/>
	<path d="M126.25,31.35c0.28-0.74,0.68-1.38,1.19-1.9c0.52-0.52,1.13-0.93,1.86-1.21c0.72-0.29,1.53-0.43,2.43-0.43
		c0.9,0,1.71,0.14,2.44,0.43c0.73,0.29,1.35,0.69,1.87,1.21c0.52,0.52,0.91,1.16,1.19,1.9c0.28,0.74,0.42,1.57,0.42,2.49
		c0,0.91-0.14,1.74-0.42,2.47c-0.28,0.74-0.68,1.37-1.19,1.89c-0.52,0.52-1.14,0.92-1.87,1.2c-0.73,0.28-1.54,0.42-2.44,0.42
		c-0.9,0-1.71-0.14-2.43-0.42c-0.72-0.28-1.34-0.68-1.86-1.2c-0.52-0.52-0.91-1.15-1.19-1.89c-0.28-0.74-0.42-1.56-0.42-2.47
		C125.83,32.92,125.97,32.09,126.25,31.35z M129.1,35.17c0.09,0.43,0.24,0.83,0.45,1.17c0.21,0.35,0.5,0.62,0.85,0.83
		c0.35,0.21,0.8,0.31,1.33,0.31c0.53,0,0.98-0.1,1.34-0.31c0.36-0.21,0.65-0.48,0.86-0.83c0.21-0.35,0.36-0.74,0.45-1.17
		c0.09-0.43,0.13-0.88,0.13-1.34c0-0.46-0.04-0.91-0.13-1.35c-0.09-0.44-0.24-0.83-0.45-1.17c-0.21-0.34-0.5-0.61-0.86-0.83
		c-0.36-0.21-0.81-0.32-1.34-0.32c-0.53,0-0.97,0.11-1.33,0.32c-0.35,0.21-0.64,0.49-0.85,0.83c-0.21,0.34-0.36,0.73-0.45,1.17
		c-0.09,0.44-0.13,0.89-0.13,1.35C128.96,34.29,129.01,34.74,129.1,35.17z"/>
	<path d="M139.75,31.35c0.28-0.74,0.68-1.38,1.19-1.9c0.52-0.52,1.13-0.93,1.86-1.21c0.72-0.29,1.53-0.43,2.43-0.43
		c0.9,0,1.71,0.14,2.44,0.43c0.73,0.29,1.35,0.69,1.87,1.21c0.52,0.52,0.91,1.16,1.19,1.9c0.28,0.74,0.42,1.57,0.42,2.49
		c0,0.91-0.14,1.74-0.42,2.47c-0.28,0.74-0.68,1.37-1.19,1.89c-0.52,0.52-1.14,0.92-1.87,1.2c-0.73,0.28-1.54,0.42-2.44,0.42
		c-0.9,0-1.71-0.14-2.43-0.42c-0.72-0.28-1.34-0.68-1.86-1.2c-0.52-0.52-0.91-1.15-1.19-1.89c-0.28-0.74-0.42-1.56-0.42-2.47
		C139.33,32.92,139.47,32.09,139.75,31.35z M142.6,35.17c0.09,0.43,0.24,0.83,0.45,1.17c0.21,0.35,0.5,0.62,0.85,0.83
		c0.35,0.21,0.8,0.31,1.33,0.31c0.53,0,0.98-0.1,1.34-0.31c0.36-0.21,0.65-0.48,0.86-0.83c0.21-0.35,0.36-0.74,0.45-1.17
		c0.09-0.43,0.13-0.88,0.13-1.34c0-0.46-0.04-0.91-0.13-1.35c-0.09-0.44-0.24-0.83-0.45-1.17c-0.21-0.34-0.5-0.61-0.86-0.83
		c-0.36-0.21-0.81-0.32-1.34-0.32c-0.53,0-0.97,0.11-1.33,0.32c-0.35,0.21-0.64,0.49-0.85,0.83c-0.21,0.34-0.36,0.73-0.45,1.17
		c-0.09,0.44-0.13,0.89-0.13,1.35C142.46,34.29,142.51,34.74,142.6,35.17z"/>
	<path d="M156.16,28.11v2.12h0.04c0.15-0.35,0.35-0.68,0.6-0.98c0.25-0.3,0.54-0.56,0.86-0.77c0.32-0.21,0.67-0.38,1.04-0.5
		c0.37-0.12,0.75-0.18,1.15-0.18c0.21,0,0.43,0.04,0.68,0.11v2.92c-0.15-0.03-0.32-0.06-0.53-0.08c-0.21-0.02-0.4-0.03-0.6-0.03
		c-0.57,0-1.06,0.1-1.46,0.29c-0.4,0.19-0.72,0.45-0.96,0.78c-0.24,0.33-0.42,0.72-0.52,1.16c-0.1,0.44-0.15,0.92-0.15,1.44v5.15
		h-3.14V28.11H156.16z"/>
	<path d="M164.41,36.69c0.14,0.24,0.32,0.44,0.54,0.6c0.22,0.15,0.47,0.27,0.76,0.34c0.29,0.07,0.59,0.11,0.89,0.11
		c0.22,0,0.45-0.03,0.7-0.08c0.24-0.05,0.46-0.13,0.66-0.24c0.2-0.11,0.36-0.26,0.5-0.44c0.13-0.18,0.2-0.42,0.2-0.7
		c0-0.47-0.31-0.82-0.94-1.06c-0.63-0.24-1.5-0.47-2.62-0.71c-0.46-0.1-0.9-0.22-1.34-0.36c-0.43-0.14-0.82-0.32-1.16-0.55
		c-0.34-0.23-0.61-0.52-0.82-0.86c-0.21-0.35-0.31-0.77-0.31-1.27c0-0.74,0.14-1.34,0.43-1.81c0.29-0.47,0.67-0.84,1.14-1.12
		c0.47-0.27,1-0.46,1.59-0.57c0.59-0.11,1.19-0.17,1.81-0.17c0.62,0,1.22,0.06,1.8,0.18c0.58,0.12,1.1,0.32,1.56,0.6
		c0.46,0.28,0.84,0.65,1.14,1.12c0.3,0.46,0.48,1.05,0.54,1.76h-2.98c-0.04-0.6-0.27-1.01-0.68-1.23c-0.41-0.21-0.9-0.32-1.46-0.32
		c-0.18,0-0.37,0.01-0.57,0.03c-0.21,0.02-0.39,0.07-0.56,0.14c-0.17,0.07-0.31,0.18-0.43,0.32c-0.12,0.14-0.18,0.33-0.18,0.56
		c0,0.28,0.1,0.51,0.31,0.68c0.21,0.18,0.47,0.32,0.81,0.43c0.33,0.11,0.71,0.21,1.14,0.3c0.43,0.09,0.86,0.18,1.3,0.29
		c0.46,0.1,0.9,0.23,1.34,0.38c0.43,0.15,0.82,0.34,1.16,0.59c0.34,0.24,0.61,0.55,0.82,0.91c0.21,0.36,0.31,0.81,0.31,1.34
		c0,0.75-0.15,1.38-0.45,1.89c-0.3,0.51-0.7,0.92-1.18,1.23c-0.49,0.31-1.04,0.53-1.67,0.65c-0.63,0.12-1.26,0.19-1.91,0.19
		c-0.66,0-1.31-0.07-1.94-0.2c-0.63-0.13-1.2-0.35-1.69-0.66c-0.49-0.31-0.9-0.72-1.21-1.23c-0.32-0.51-0.49-1.14-0.52-1.91h2.98
		C164.2,36.16,164.27,36.45,164.41,36.69z"/>
</g>
<g>
	<path d="M47.06,46.19c0.25,0.12,0.46,0.28,0.62,0.48c0.17,0.2,0.3,0.44,0.38,0.71c0.09,0.27,0.13,0.56,0.13,0.86
		s-0.04,0.59-0.13,0.86c-0.09,0.27-0.22,0.5-0.38,0.71c-0.17,0.2-0.38,0.36-0.62,0.48c-0.25,0.12-0.53,0.18-0.85,0.18
		c-0.32,0-0.61-0.06-0.85-0.18c-0.25-0.12-0.46-0.28-0.62-0.48c-0.17-0.2-0.3-0.44-0.38-0.71c-0.09-0.27-0.13-0.56-0.13-0.86
		s0.04-0.59,0.13-0.86c0.09-0.27,0.22-0.5,0.38-0.71c0.17-0.2,0.38-0.36,0.62-0.48c0.25-0.12,0.53-0.18,0.85-0.18
		C46.53,46.01,46.82,46.07,47.06,46.19z M45.57,46.6c-0.18,0.1-0.34,0.24-0.46,0.41c-0.12,0.17-0.22,0.36-0.28,0.58
		c-0.06,0.21-0.09,0.43-0.09,0.66c0,0.22,0.03,0.44,0.09,0.66c0.06,0.22,0.16,0.41,0.28,0.58c0.12,0.17,0.28,0.3,0.46,0.41
		c0.18,0.1,0.4,0.16,0.65,0.16c0.24,0,0.46-0.05,0.64-0.16c0.18-0.1,0.34-0.24,0.46-0.41c0.12-0.17,0.21-0.36,0.28-0.58
		c0.06-0.21,0.09-0.43,0.09-0.66c0-0.22-0.03-0.44-0.09-0.66c-0.06-0.22-0.16-0.41-0.28-0.58c-0.12-0.17-0.28-0.3-0.46-0.41
		c-0.19-0.1-0.4-0.16-0.64-0.16C45.97,46.44,45.75,46.49,45.57,46.6z"/>
	<path d="M54.18,46.13v0.8h0.02c0.12-0.29,0.31-0.52,0.58-0.68c0.27-0.16,0.58-0.24,0.92-0.24c0.32,0,0.6,0.06,0.84,0.18
		c0.24,0.12,0.43,0.28,0.59,0.49c0.16,0.2,0.27,0.44,0.35,0.71c0.08,0.27,0.11,0.55,0.11,0.85c0,0.3-0.04,0.58-0.11,0.85
		c-0.08,0.27-0.19,0.51-0.35,0.71c-0.16,0.2-0.36,0.36-0.59,0.48c-0.24,0.12-0.52,0.18-0.84,0.18c-0.15,0-0.3-0.02-0.46-0.06
		c-0.15-0.04-0.29-0.1-0.42-0.17c-0.13-0.08-0.25-0.17-0.35-0.29c-0.1-0.11-0.18-0.25-0.23-0.4h-0.02v2.35h-0.51v-5.76H54.18z
		 M57,47.59c-0.05-0.21-0.13-0.41-0.25-0.58c-0.11-0.17-0.25-0.31-0.43-0.41c-0.17-0.11-0.38-0.16-0.63-0.16
		c-0.28,0-0.52,0.05-0.71,0.15s-0.34,0.23-0.46,0.39c-0.11,0.16-0.19,0.35-0.24,0.57c-0.05,0.22-0.07,0.45-0.07,0.69
		c0,0.22,0.03,0.43,0.08,0.65c0.05,0.22,0.14,0.41,0.25,0.58c0.12,0.17,0.27,0.31,0.46,0.41c0.19,0.11,0.42,0.16,0.69,0.16
		c0.25,0,0.45-0.05,0.63-0.16c0.17-0.11,0.32-0.24,0.43-0.41c0.11-0.17,0.19-0.36,0.25-0.58c0.05-0.21,0.08-0.43,0.08-0.65
		C57.08,48.02,57.05,47.8,57,47.59z"/>
	<path d="M63.51,48.95c0.05,0.2,0.13,0.38,0.25,0.53c0.11,0.16,0.26,0.29,0.43,0.39c0.17,0.1,0.38,0.16,0.63,0.16
		c0.38,0,0.67-0.1,0.88-0.29c0.21-0.2,0.36-0.46,0.44-0.78h0.51c-0.11,0.48-0.31,0.85-0.6,1.11c-0.29,0.26-0.7,0.39-1.24,0.39
		c-0.33,0-0.62-0.06-0.86-0.18c-0.24-0.12-0.44-0.28-0.59-0.48c-0.15-0.2-0.27-0.44-0.34-0.71c-0.07-0.27-0.11-0.55-0.11-0.85
		c0-0.28,0.04-0.55,0.11-0.82c0.07-0.27,0.19-0.51,0.34-0.71c0.15-0.21,0.35-0.38,0.59-0.51c0.24-0.13,0.53-0.19,0.86-0.19
		c0.34,0,0.63,0.07,0.87,0.2c0.24,0.14,0.43,0.31,0.58,0.53c0.15,0.22,0.26,0.47,0.32,0.76c0.07,0.29,0.09,0.58,0.08,0.87h-3.24
		C63.43,48.56,63.46,48.75,63.51,48.95z M66.05,47.38c-0.06-0.18-0.15-0.34-0.27-0.48c-0.11-0.14-0.25-0.25-0.42-0.33
		c-0.16-0.08-0.35-0.13-0.56-0.13c-0.21,0-0.4,0.04-0.56,0.13c-0.16,0.08-0.3,0.2-0.42,0.33c-0.11,0.14-0.21,0.3-0.27,0.48
		c-0.07,0.18-0.11,0.37-0.13,0.56h2.73C66.15,47.75,66.12,47.56,66.05,47.38z"/>
	<path d="M72.61,46.13v0.73h0.02c0.1-0.26,0.27-0.46,0.52-0.62c0.25-0.16,0.53-0.23,0.82-0.23c0.29,0,0.54,0.04,0.74,0.11
		c0.2,0.08,0.36,0.18,0.48,0.32c0.12,0.14,0.2,0.31,0.25,0.51c0.05,0.2,0.07,0.43,0.07,0.68v2.71H75v-2.63
		c0-0.18-0.02-0.35-0.05-0.5c-0.03-0.16-0.09-0.29-0.17-0.4c-0.08-0.11-0.19-0.2-0.33-0.27c-0.14-0.07-0.31-0.1-0.52-0.1
		c-0.21,0-0.39,0.04-0.55,0.11c-0.16,0.07-0.3,0.17-0.41,0.3c-0.11,0.13-0.2,0.28-0.26,0.46c-0.06,0.18-0.1,0.37-0.1,0.58v2.46
		h-0.51v-4.21H72.61z"/>
	<path d="M88.3,46.13l1.39,3.59l1.3-3.59h0.51l-1.83,4.85c-0.08,0.18-0.15,0.33-0.21,0.45c-0.07,0.12-0.14,0.21-0.22,0.28
		c-0.08,0.07-0.17,0.12-0.28,0.15c-0.11,0.03-0.24,0.04-0.4,0.04c-0.1-0.01-0.18-0.01-0.24-0.01c-0.06,0-0.11-0.01-0.15-0.03v-0.43
		c0.06,0.01,0.12,0.02,0.18,0.03c0.06,0.01,0.12,0.01,0.18,0.01c0.11,0,0.21-0.02,0.28-0.05c0.07-0.03,0.14-0.08,0.19-0.13
		c0.05-0.06,0.1-0.13,0.14-0.21c0.04-0.08,0.08-0.17,0.12-0.27l0.18-0.47l-1.68-4.2H88.3z"/>
	<path d="M99.37,46.19c0.25,0.12,0.46,0.28,0.62,0.48c0.17,0.2,0.3,0.44,0.38,0.71c0.09,0.27,0.13,0.56,0.13,0.86
		s-0.04,0.59-0.13,0.86c-0.09,0.27-0.22,0.5-0.38,0.71c-0.17,0.2-0.38,0.36-0.62,0.48c-0.25,0.12-0.53,0.18-0.85,0.18
		s-0.61-0.06-0.85-0.18c-0.25-0.12-0.46-0.28-0.62-0.48c-0.17-0.2-0.3-0.44-0.38-0.71c-0.09-0.27-0.13-0.56-0.13-0.86
		s0.04-0.59,0.13-0.86c0.09-0.27,0.21-0.5,0.38-0.71c0.17-0.2,0.38-0.36,0.62-0.48c0.25-0.12,0.53-0.18,0.85-0.18
		S99.13,46.07,99.37,46.19z M97.88,46.6c-0.19,0.1-0.34,0.24-0.46,0.41c-0.12,0.17-0.22,0.36-0.28,0.58
		c-0.06,0.21-0.09,0.43-0.09,0.66c0,0.22,0.03,0.44,0.09,0.66c0.06,0.22,0.16,0.41,0.28,0.58c0.12,0.17,0.28,0.3,0.46,0.41
		c0.18,0.1,0.4,0.16,0.64,0.16c0.24,0,0.46-0.05,0.64-0.16c0.18-0.1,0.34-0.24,0.46-0.41c0.12-0.17,0.21-0.36,0.28-0.58
		c0.06-0.21,0.09-0.43,0.09-0.66c0-0.22-0.03-0.44-0.09-0.66c-0.06-0.22-0.16-0.41-0.28-0.58c-0.12-0.17-0.28-0.3-0.46-0.41
		c-0.18-0.1-0.4-0.16-0.64-0.16C98.28,46.44,98.06,46.49,97.88,46.6z"/>
	<path d="M108.95,50.34v-0.76h-0.02c-0.14,0.28-0.33,0.5-0.59,0.65c-0.26,0.15-0.55,0.22-0.86,0.22c-0.27,0-0.49-0.04-0.68-0.11
		c-0.19-0.07-0.34-0.18-0.46-0.31c-0.12-0.14-0.2-0.3-0.26-0.5c-0.05-0.2-0.08-0.42-0.08-0.67v-2.74h0.51v2.74
		c0.01,0.38,0.1,0.67,0.27,0.87s0.45,0.29,0.86,0.29c0.22,0,0.41-0.05,0.57-0.14c0.16-0.1,0.29-0.22,0.39-0.38
		c0.1-0.16,0.18-0.34,0.23-0.54c0.05-0.2,0.07-0.41,0.07-0.62v-2.21h0.51v4.21H108.95z"/>
	<path d="M115.61,46.13v0.99h0.02c0.13-0.34,0.33-0.61,0.61-0.79c0.27-0.18,0.6-0.27,0.98-0.25v0.51c-0.23-0.01-0.45,0.02-0.64,0.09
		c-0.19,0.07-0.36,0.18-0.49,0.31c-0.14,0.14-0.25,0.3-0.32,0.49c-0.08,0.19-0.11,0.39-0.11,0.62v2.25h-0.51v-4.21H115.61z"/>
	<path d="M129.83,48.95c0.05,0.2,0.13,0.38,0.25,0.53c0.11,0.16,0.26,0.29,0.43,0.39c0.17,0.1,0.38,0.16,0.63,0.16
		c0.38,0,0.67-0.1,0.88-0.29c0.21-0.2,0.36-0.46,0.44-0.78h0.51c-0.11,0.48-0.31,0.85-0.6,1.11c-0.29,0.26-0.7,0.39-1.24,0.39
		c-0.33,0-0.62-0.06-0.86-0.18c-0.24-0.12-0.44-0.28-0.59-0.48c-0.15-0.2-0.27-0.44-0.34-0.71c-0.07-0.27-0.11-0.55-0.11-0.85
		c0-0.28,0.04-0.55,0.11-0.82c0.07-0.27,0.19-0.51,0.34-0.71c0.15-0.21,0.35-0.38,0.59-0.51c0.24-0.13,0.53-0.19,0.86-0.19
		c0.34,0,0.63,0.07,0.87,0.2c0.24,0.14,0.43,0.31,0.58,0.53c0.15,0.22,0.26,0.47,0.32,0.76c0.07,0.29,0.09,0.58,0.08,0.87h-3.24
		C129.75,48.56,129.78,48.75,129.83,48.95z M132.37,47.38c-0.06-0.18-0.15-0.34-0.27-0.48c-0.11-0.14-0.25-0.25-0.42-0.33
		c-0.16-0.08-0.35-0.13-0.56-0.13c-0.21,0-0.4,0.04-0.56,0.13c-0.16,0.08-0.3,0.2-0.42,0.33c-0.11,0.14-0.21,0.3-0.27,0.48
		c-0.07,0.18-0.11,0.37-0.13,0.56h2.73C132.47,47.75,132.44,47.56,132.37,47.38z"/>
	<path d="M138.49,46.13l1.39,3.59l1.3-3.59h0.51l-1.83,4.85c-0.08,0.18-0.15,0.33-0.21,0.45c-0.07,0.12-0.14,0.21-0.22,0.28
		c-0.08,0.07-0.17,0.12-0.28,0.15c-0.11,0.03-0.24,0.04-0.4,0.04c-0.1-0.01-0.18-0.01-0.24-0.01c-0.06,0-0.11-0.01-0.15-0.03v-0.43
		c0.06,0.01,0.12,0.02,0.18,0.03c0.06,0.01,0.12,0.01,0.18,0.01c0.11,0,0.21-0.02,0.28-0.05c0.07-0.03,0.14-0.08,0.19-0.13
		c0.05-0.06,0.1-0.13,0.14-0.21c0.04-0.08,0.08-0.17,0.12-0.27l0.18-0.47l-1.68-4.2H138.49z"/>
	<path d="M147.32,48.95c0.05,0.2,0.13,0.38,0.25,0.53c0.11,0.16,0.26,0.29,0.43,0.39c0.17,0.1,0.38,0.16,0.63,0.16
		c0.38,0,0.67-0.1,0.88-0.29c0.21-0.2,0.36-0.46,0.44-0.78h0.51c-0.11,0.48-0.31,0.85-0.6,1.11c-0.29,0.26-0.7,0.39-1.24,0.39
		c-0.33,0-0.62-0.06-0.86-0.18c-0.24-0.12-0.44-0.28-0.59-0.48c-0.15-0.2-0.27-0.44-0.34-0.71c-0.07-0.27-0.11-0.55-0.11-0.85
		c0-0.28,0.04-0.55,0.11-0.82c0.07-0.27,0.19-0.51,0.34-0.71c0.15-0.21,0.35-0.38,0.59-0.51c0.24-0.13,0.53-0.19,0.86-0.19
		c0.34,0,0.63,0.07,0.87,0.2c0.24,0.14,0.43,0.31,0.58,0.53s0.26,0.47,0.32,0.76c0.07,0.29,0.09,0.58,0.08,0.87h-3.24
		C147.24,48.56,147.26,48.75,147.32,48.95z M149.86,47.38c-0.06-0.18-0.15-0.34-0.27-0.48c-0.11-0.14-0.25-0.25-0.42-0.33
		c-0.16-0.08-0.35-0.13-0.56-0.13c-0.21,0-0.4,0.04-0.56,0.13c-0.16,0.08-0.3,0.2-0.42,0.33c-0.11,0.14-0.21,0.3-0.27,0.48
		c-0.07,0.18-0.11,0.37-0.13,0.56h2.73C149.96,47.75,149.93,47.56,149.86,47.38z"/>
	<path d="M158.33,46.95c-0.06-0.12-0.14-0.21-0.24-0.29c-0.1-0.08-0.22-0.13-0.35-0.17c-0.13-0.04-0.27-0.05-0.42-0.05
		c-0.11,0-0.23,0.01-0.35,0.04c-0.12,0.02-0.22,0.07-0.32,0.12c-0.1,0.06-0.18,0.13-0.24,0.22c-0.06,0.09-0.09,0.21-0.09,0.34
		c0,0.11,0.03,0.21,0.09,0.29c0.06,0.08,0.13,0.15,0.22,0.2c0.09,0.05,0.18,0.1,0.29,0.13c0.1,0.04,0.2,0.06,0.29,0.09l0.69,0.16
		c0.15,0.02,0.29,0.06,0.44,0.12c0.14,0.06,0.27,0.13,0.38,0.22c0.11,0.09,0.2,0.21,0.27,0.34c0.07,0.14,0.11,0.3,0.11,0.48
		c0,0.23-0.05,0.42-0.16,0.58c-0.1,0.16-0.24,0.29-0.4,0.39c-0.16,0.1-0.34,0.17-0.54,0.22c-0.2,0.04-0.4,0.07-0.6,0.07
		c-0.5,0-0.9-0.12-1.2-0.35c-0.31-0.23-0.48-0.61-0.53-1.13h0.51c0.02,0.35,0.15,0.61,0.38,0.79c0.23,0.18,0.52,0.27,0.86,0.27
		c0.13,0,0.25-0.01,0.39-0.04c0.13-0.03,0.26-0.07,0.37-0.14c0.11-0.07,0.21-0.15,0.28-0.25c0.07-0.1,0.11-0.22,0.11-0.37
		c0-0.13-0.03-0.23-0.08-0.31c-0.05-0.08-0.12-0.16-0.21-0.21c-0.09-0.06-0.19-0.1-0.3-0.14c-0.11-0.04-0.22-0.07-0.34-0.1
		l-0.66-0.15c-0.17-0.04-0.32-0.09-0.47-0.15c-0.14-0.06-0.27-0.13-0.37-0.21c-0.11-0.08-0.19-0.19-0.25-0.31
		c-0.06-0.12-0.09-0.27-0.09-0.45c0-0.21,0.05-0.39,0.14-0.55c0.1-0.15,0.22-0.27,0.37-0.37c0.15-0.09,0.32-0.16,0.51-0.2
		c0.19-0.04,0.37-0.07,0.56-0.07c0.21,0,0.41,0.03,0.59,0.08c0.18,0.05,0.34,0.14,0.48,0.25c0.14,0.11,0.25,0.26,0.33,0.42
		c0.08,0.17,0.13,0.37,0.14,0.6h-0.51C158.43,47.21,158.39,47.07,158.33,46.95z"/>
</g>
<g>
	<polygon class="st3" points="26.4,17.34 38.91,17.34 38.91,11.66 0,11.66 0,50.56 38.91,50.56 38.91,44.88 26.4,44.88 	"/>
</g>
<g>
	<polygon class="st4" points="26.4,17.34 38.91,17.34 38.91,11.66 6.9,7.77 6.9,54.45 38.91,50.56 38.91,44.88 26.4,44.88 	"/>
</g>
<g>
	<polygon class="st5" points="26.4,17.34 38.91,17.34 38.91,11.66 13.79,3.89 13.79,58.33 38.91,50.56 38.91,44.88 26.4,44.88 	"/>
</g>
<g>
	<polygon class="st5" points="26.4,17.34 38.91,17.34 38.91,11.66 20.69,0 20.69,62.22 38.91,50.56 38.91,44.88 26.4,44.88 	"/>
</g>
<g class="st6">
	<polygon class="st0" points="178.2,17.34 165.69,17.34 165.69,11.66 183.91,11.66 183.91,50.56 165.69,50.56 165.69,44.88 
		178.2,44.88 	"/>
</g>
</svg>
