<svg id="Layer_1" data-name="Layer 1" xmlns="http://www.w3.org/2000/svg" viewBox="0 0 183.91 62.22"><defs><style>.cls-1,.cls-7{fill:#00a57b;}.cls-2,.cls-6{fill:#6967ac;}.cls-3{fill:#8d87c0;}.cls-4{fill:#3c4898;}.cls-5{fill:#fff;}.cls-6,.cls-7{opacity:0.5;}.cls-8{opacity:0.35;}</style></defs><polygon class="cls-1" points="26.4 17.34 38.91 17.34 38.91 11.66 20.69 0 20.69 62.22 38.91 50.56 38.91 44.88 26.4 44.88 26.4 17.34"/><polygon class="cls-2" points="26.4 17.34 38.91 17.34 38.91 11.66 6.9 7.77 6.9 54.45 38.91 50.56 38.91 44.88 26.4 44.88 26.4 17.34"/><polygon class="cls-3" points="26.4 17.34 38.91 17.34 38.91 11.66 13.79 3.89 13.79 58.34 38.91 50.56 38.91 44.88 26.4 44.88 26.4 17.34"/><polygon class="cls-4" points="26.4 17.34 38.91 17.34 38.91 11.66 0 11.66 0 50.56 38.91 50.56 38.91 44.88 26.4 44.88 26.4 17.34"/><path class="cls-5" d="M37.51,23.76a7.37,7.37,0,0,1,5.42,2c1.21,1.29,1.82,3.24,1.82,5.87s-.61,4.57-1.82,5.86a7.37,7.37,0,0,1-5.42,2H32.05V23.76Zm-.76,14.49a10.47,10.47,0,0,0,2.93-.36,4.46,4.46,0,0,0,3.19-3.22,10.68,10.68,0,0,0,.38-3,10.7,10.7,0,0,0-.38-3,4.84,4.84,0,0,0-1.17-2.06,4.62,4.62,0,0,0-2-1.15A10.09,10.09,0,0,0,36.75,25h-3.2V38.25Z"/><path class="cls-5" d="M48.33,23.76V26H46.94V23.76Zm0,4.37v11.4H46.94V28.13Z"/><path class="cls-5" d="M53.15,29.3V39.53h-1.4V29.3H49.81V28.13h1.94v-1a7.06,7.06,0,0,1,.12-1.35,2.64,2.64,0,0,1,.41-1.06,2,2,0,0,1,.86-.69,3.42,3.42,0,0,1,1.38-.24l.57,0,.6.07V25L55.16,25l-.49,0a1.75,1.75,0,0,0-.88.18,1,1,0,0,0-.46.47,1.85,1.85,0,0,0-.16.7c0,.26,0,.55,0,.86v1H55.4V29.3Z"/><path class="cls-5" d="M58.47,29.3V39.53H57.08V29.3H55.13V28.13h1.95v-1a8,8,0,0,1,.11-1.35,2.51,2.51,0,0,1,.42-1.06,2,2,0,0,1,.85-.69,3.42,3.42,0,0,1,1.38-.24l.57,0,.6.07V25L60.48,25a3.91,3.91,0,0,0-.49,0,1.78,1.78,0,0,0-.88.18,1,1,0,0,0-.45.47,1.85,1.85,0,0,0-.17.7c0,.26,0,.55,0,.86v1h2.25V29.3Z"/><path class="cls-5" d="M63.08,35.77a4.23,4.23,0,0,0,.67,1.44,3.84,3.84,0,0,0,1.17,1.06,3.27,3.27,0,0,0,1.7.42A3.4,3.4,0,0,0,69,37.9a4.22,4.22,0,0,0,1.19-2.12h1.39a5.53,5.53,0,0,1-1.62,3,4.83,4.83,0,0,1-3.35,1.06,5.41,5.41,0,0,1-2.33-.47,4.28,4.28,0,0,1-1.6-1.31,5.7,5.7,0,0,1-.92-1.92,8.71,8.71,0,0,1-.3-2.31,8.29,8.29,0,0,1,.3-2.21,6,6,0,0,1,.92-1.93,4.64,4.64,0,0,1,1.6-1.37,5,5,0,0,1,2.33-.52,4.71,4.71,0,0,1,2.34.55,4.59,4.59,0,0,1,1.58,1.45,6,6,0,0,1,.88,2.06,9.23,9.23,0,0,1,.22,2.35H62.87A6.21,6.21,0,0,0,63.08,35.77ZM70,31.51a4.29,4.29,0,0,0-.72-1.29,3.44,3.44,0,0,0-1.13-.9,3.19,3.19,0,0,0-1.5-.35,3.24,3.24,0,0,0-1.52.35,3.54,3.54,0,0,0-1.13.9,4.73,4.73,0,0,0-.74,1.3A6.72,6.72,0,0,0,62.87,33h7.38A5.24,5.24,0,0,0,70,31.51Z"/><path class="cls-5" d="M74.8,28.13v2.68h0a4.33,4.33,0,0,1,1.65-2.15A4.26,4.26,0,0,1,79.15,28v1.39a4.3,4.3,0,0,0-1.72.25,3.81,3.81,0,0,0-1.34.86,3.58,3.58,0,0,0-.87,1.31,4.32,4.32,0,0,0-.31,1.67v6.07h-1.4V28.13Z"/><path class="cls-5" d="M81.1,35.77a4.25,4.25,0,0,0,.68,1.44A3.84,3.84,0,0,0,83,38.27a3.27,3.27,0,0,0,1.7.42A3.35,3.35,0,0,0,87,37.9a4.16,4.16,0,0,0,1.2-2.12h1.39a5.66,5.66,0,0,1-1.62,3,4.84,4.84,0,0,1-3.35,1.06,5.38,5.38,0,0,1-2.33-.47,4.21,4.21,0,0,1-1.6-1.31,5.52,5.52,0,0,1-.92-1.92,8.71,8.71,0,0,1-.3-2.31,8.29,8.29,0,0,1,.3-2.21,5.84,5.84,0,0,1,.92-1.93,4.55,4.55,0,0,1,1.6-1.37,5,5,0,0,1,2.33-.52,4.76,4.76,0,0,1,2.34.55,4.68,4.68,0,0,1,1.58,1.45,5.78,5.78,0,0,1,.87,2.06,8.8,8.8,0,0,1,.22,2.35H80.89A6.21,6.21,0,0,0,81.1,35.77ZM88,31.51a4.29,4.29,0,0,0-.72-1.29,3.54,3.54,0,0,0-1.13-.9,3.19,3.19,0,0,0-1.5-.35,3.29,3.29,0,0,0-1.53.35,3.51,3.51,0,0,0-1.12.9,4.49,4.49,0,0,0-.74,1.3A6.25,6.25,0,0,0,80.89,33h7.38A5.23,5.23,0,0,0,88,31.51Z"/><path class="cls-5" d="M92.91,28.13v2h0a3.31,3.31,0,0,1,1.41-1.67,4.15,4.15,0,0,1,2.23-.63,5.75,5.75,0,0,1,2,.31,3.2,3.2,0,0,1,1.29.87,3.33,3.33,0,0,1,.69,1.38,8,8,0,0,1,.2,1.84v7.33h-1.4V32.42a6.47,6.47,0,0,0-.13-1.36A2.9,2.9,0,0,0,98.79,30a2.17,2.17,0,0,0-.9-.73,3.21,3.21,0,0,0-1.4-.27,3.51,3.51,0,0,0-1.49.3,3.24,3.24,0,0,0-1.11.82,3.74,3.74,0,0,0-.7,1.24,5.08,5.08,0,0,0-.28,1.55v6.65H91.52V28.13Z"/><path class="cls-5" d="M107.93,28.13V29.3h-2.32V37a2.53,2.53,0,0,0,.19,1.07c.13.26.44.41.94.43a11.71,11.71,0,0,0,1.19-.06V39.6l-.62,0c-.2,0-.41,0-.61,0a2.77,2.77,0,0,1-2-.54,2.74,2.74,0,0,1-.53-2V29.3h-2V28.13h2V24.71h1.39v3.42Z"/><path class="cls-5" d="M117,23.76a8,8,0,0,1,2.84.49,6.22,6.22,0,0,1,2.27,1.45,6.76,6.76,0,0,1,1.5,2.43,9.92,9.92,0,0,1,.54,3.43,10.72,10.72,0,0,1-.44,3.18,7.07,7.07,0,0,1-1.33,2.52,6.39,6.39,0,0,1-2.24,1.67,7.62,7.62,0,0,1-3.14.6h-6.81V23.76Zm-.25,12.86a4.27,4.27,0,0,0,1.46-.25,3.26,3.26,0,0,0,1.26-.8,4.08,4.08,0,0,0,.88-1.47,6.26,6.26,0,0,0,.34-2.21,8.84,8.84,0,0,0-.24-2.15,4.12,4.12,0,0,0-.76-1.65,3.31,3.31,0,0,0-1.4-1.05,5.65,5.65,0,0,0-2.15-.36h-2.48v9.94Z"/><path class="cls-5" d="M126.25,31.35a5.21,5.21,0,0,1,1.19-1.9,5.42,5.42,0,0,1,1.86-1.22,6.66,6.66,0,0,1,2.43-.43,6.79,6.79,0,0,1,2.44.43A5.33,5.33,0,0,1,136,29.45a5.23,5.23,0,0,1,1.2,1.9,7.53,7.53,0,0,1,0,5A5.45,5.45,0,0,1,136,38.2a5.15,5.15,0,0,1-1.86,1.2,6.79,6.79,0,0,1-2.44.42,6.66,6.66,0,0,1-2.43-.42,5.23,5.23,0,0,1-1.86-1.2,5.43,5.43,0,0,1-1.19-1.89,7.53,7.53,0,0,1,0-5Zm2.85,3.82a3.75,3.75,0,0,0,.45,1.17,2.41,2.41,0,0,0,.85.83,3,3,0,0,0,2.66,0,2.36,2.36,0,0,0,.86-.83,3.53,3.53,0,0,0,.46-1.17,6.55,6.55,0,0,0,.13-1.34,6.69,6.69,0,0,0-.13-1.34,3.35,3.35,0,0,0-.46-1.18,2.46,2.46,0,0,0-2.19-1.14,2.47,2.47,0,0,0-1.33.32,2.57,2.57,0,0,0-.85.82,3.54,3.54,0,0,0-.45,1.18,6.7,6.7,0,0,0-.14,1.34A6.55,6.55,0,0,0,129.1,35.17Z"/><path class="cls-5" d="M139.75,31.35a5.21,5.21,0,0,1,1.19-1.9,5.38,5.38,0,0,1,1.85-1.22,6.74,6.74,0,0,1,2.43-.43,6.81,6.81,0,0,1,2.45.43,5.42,5.42,0,0,1,1.86,1.22,5.08,5.08,0,0,1,1.19,1.9,7.53,7.53,0,0,1,0,5,5.14,5.14,0,0,1-3.05,3.09,6.81,6.81,0,0,1-2.45.42,6.74,6.74,0,0,1-2.43-.42,5.19,5.19,0,0,1-1.85-1.2,5.43,5.43,0,0,1-1.19-1.89,7.53,7.53,0,0,1,0-5Zm2.85,3.82a3.32,3.32,0,0,0,.45,1.17,2.41,2.41,0,0,0,.85.83,2.53,2.53,0,0,0,1.32.31,2.63,2.63,0,0,0,1.34-.31,2.36,2.36,0,0,0,.86-.83,3.53,3.53,0,0,0,.46-1.17,7.34,7.34,0,0,0,.13-1.34,7.51,7.51,0,0,0-.13-1.34,3.35,3.35,0,0,0-.46-1.18,2.51,2.51,0,0,0-.86-.82,2.53,2.53,0,0,0-1.34-.32,2.44,2.44,0,0,0-1.32.32,2.57,2.57,0,0,0-.85.82,3.16,3.16,0,0,0-.45,1.18,6.7,6.7,0,0,0-.14,1.34A6.55,6.55,0,0,0,142.6,35.17Z"/><path class="cls-5" d="M156.16,28.11v2.12h0a4,4,0,0,1,.6-1,3.93,3.93,0,0,1,.86-.77,4.15,4.15,0,0,1,1-.5,3.69,3.69,0,0,1,1.15-.18,2.53,2.53,0,0,1,.68.11v2.92a4.67,4.67,0,0,0-.53-.08l-.59,0A3.22,3.22,0,0,0,158,31a2.47,2.47,0,0,0-1,.78,3,3,0,0,0-.52,1.16,6.48,6.48,0,0,0-.16,1.44v5.14h-3.13V28.11Z"/><path class="cls-5" d="M164.41,36.69a1.74,1.74,0,0,0,.54.6,2.19,2.19,0,0,0,.76.34,3.6,3.6,0,0,0,1.59,0,2.66,2.66,0,0,0,.67-.25,1.38,1.38,0,0,0,.49-.44,1.09,1.09,0,0,0,.2-.69c0-.48-.31-.83-.94-1.07a18.48,18.48,0,0,0-2.61-.7c-.46-.11-.91-.23-1.34-.37a4.6,4.6,0,0,1-1.16-.55,2.69,2.69,0,0,1-.82-.86,2.51,2.51,0,0,1-.31-1.27,3.49,3.49,0,0,1,.43-1.81,3.22,3.22,0,0,1,1.14-1.12,5,5,0,0,1,1.59-.57,9.91,9.91,0,0,1,1.81-.17,8.86,8.86,0,0,1,1.8.18,4.7,4.7,0,0,1,1.56.6A3.55,3.55,0,0,1,171,29.69a3.77,3.77,0,0,1,.54,1.76h-3a1.37,1.37,0,0,0-.69-1.23,3.13,3.13,0,0,0-1.45-.32l-.58,0a1.92,1.92,0,0,0-.56.15,1.06,1.06,0,0,0-.43.32.84.84,0,0,0-.18.56.86.86,0,0,0,.31.69,2.47,2.47,0,0,0,.81.43,8.81,8.81,0,0,0,1.13.29l1.31.29c.45.11.9.23,1.33.38a4.5,4.5,0,0,1,1.16.58,3,3,0,0,1,.82.91,2.63,2.63,0,0,1,.31,1.34,3.61,3.61,0,0,1-.45,1.88A3.66,3.66,0,0,1,170.17,39a4.81,4.81,0,0,1-1.67.65,9.45,9.45,0,0,1-1.91.19,9.7,9.7,0,0,1-2-.2A5.14,5.14,0,0,1,163,39a3.74,3.74,0,0,1-1.21-1.23,3.8,3.8,0,0,1-.52-1.91h3A1.7,1.7,0,0,0,164.41,36.69Z"/><path class="cls-5" d="M47.06,46.19a1.89,1.89,0,0,1,.63.48,2.11,2.11,0,0,1,.38.71,2.67,2.67,0,0,1,.13.86,2.71,2.71,0,0,1-.13.86,2.21,2.21,0,0,1-.38.71,1.74,1.74,0,0,1-.63.47,2.1,2.1,0,0,1-1.7,0,1.74,1.74,0,0,1-.63-.47,2.21,2.21,0,0,1-.38-.71,2.71,2.71,0,0,1-.13-.86,2.67,2.67,0,0,1,.13-.86,2.11,2.11,0,0,1,.38-.71,2,2,0,0,1,2.33-.48Zm-1.49.41a1.52,1.52,0,0,0-.47.4,1.93,1.93,0,0,0-.27.58,2.11,2.11,0,0,0-.1.66,2.05,2.05,0,0,0,.1.65,1.82,1.82,0,0,0,.27.58,1.42,1.42,0,0,0,.47.41,1.32,1.32,0,0,0,.64.15,1.36,1.36,0,0,0,.65-.15,1.5,1.5,0,0,0,.46-.41,1.82,1.82,0,0,0,.27-.58,2.05,2.05,0,0,0,.1-.65,2.11,2.11,0,0,0-.1-.66,1.93,1.93,0,0,0-.27-.58,1.6,1.6,0,0,0-.46-.4,1.25,1.25,0,0,0-.65-.16A1.22,1.22,0,0,0,45.57,46.6Z"/><path class="cls-5" d="M54.18,46.13v.8h0a1.33,1.33,0,0,1,.58-.68A1.75,1.75,0,0,1,55.7,46a1.77,1.77,0,0,1,1.43.66,2.48,2.48,0,0,1,.35.71,3.43,3.43,0,0,1,.11.86,3.35,3.35,0,0,1-.11.85,2.24,2.24,0,0,1-.35.71,1.56,1.56,0,0,1-.6.48,1.78,1.78,0,0,1-.83.18,1.76,1.76,0,0,1-.46-.06,1.54,1.54,0,0,1-.42-.17,1.23,1.23,0,0,1-.35-.29,1.05,1.05,0,0,1-.23-.4h0V51.9h-.51V46.13ZM57,47.59a1.6,1.6,0,0,0-.25-.58,1.37,1.37,0,0,0-.42-.41,1.18,1.18,0,0,0-.63-.16,1.49,1.49,0,0,0-.71.15,1.26,1.26,0,0,0-.46.39,1.63,1.63,0,0,0-.24.57,3.11,3.11,0,0,0-.07.69,2.89,2.89,0,0,0,.08.65,1.63,1.63,0,0,0,.25.57,1.3,1.3,0,0,0,.46.41,1.35,1.35,0,0,0,.69.16,1.18,1.18,0,0,0,.63-.16,1.27,1.27,0,0,0,.42-.41,1.63,1.63,0,0,0,.25-.57,2.89,2.89,0,0,0,.08-.65A2.82,2.82,0,0,0,57,47.59Z"/><path class="cls-5" d="M63.51,49a1.48,1.48,0,0,0,.25.54,1.35,1.35,0,0,0,.43.39,1.45,1.45,0,0,0,1.51-.14,1.58,1.58,0,0,0,.44-.78h.51a1.94,1.94,0,0,1-.6,1.11,1.78,1.78,0,0,1-1.23.39,1.91,1.91,0,0,1-.86-.18,1.49,1.49,0,0,1-.6-.48,2,2,0,0,1-.33-.71,3,3,0,0,1-.12-.85,2.86,2.86,0,0,1,.12-.82,2.11,2.11,0,0,1,.33-.71,1.76,1.76,0,0,1,.6-.51,1.77,1.77,0,0,1,2.31.55,2.26,2.26,0,0,1,.32.76,3.57,3.57,0,0,1,.08.87H63.43A2.37,2.37,0,0,0,63.51,49Zm2.54-1.57a1.59,1.59,0,0,0-.26-.48,1.23,1.23,0,0,0-.42-.33,1.12,1.12,0,0,0-.55-.13,1.24,1.24,0,0,0-1,.46,1.64,1.64,0,0,0-.28.48,2.83,2.83,0,0,0-.13.56h2.73A1.8,1.8,0,0,0,66.05,47.38Z"/><path class="cls-5" d="M72.61,46.13v.73h0a1.22,1.22,0,0,1,.53-.62A1.56,1.56,0,0,1,74,46a2.26,2.26,0,0,1,.74.11,1.21,1.21,0,0,1,.48.33,1.11,1.11,0,0,1,.25.51,2.76,2.76,0,0,1,.07.67v2.71H75V47.72a2.76,2.76,0,0,0,0-.51,1,1,0,0,0-.17-.4.73.73,0,0,0-.33-.27,1.15,1.15,0,0,0-.52-.1,1.35,1.35,0,0,0-.55.11,1.4,1.4,0,0,0-.41.3,1.38,1.38,0,0,0-.26.46,1.81,1.81,0,0,0-.1.58v2.45h-.52V46.13Z"/><path class="cls-5" d="M88.3,46.13l1.39,3.59L91,46.13h.52L89.67,51l-.21.45a1,1,0,0,1-.22.27.69.69,0,0,1-.28.15,1.45,1.45,0,0,1-.4,0l-.24,0a.33.33,0,0,1-.15,0v-.43l.17,0h.18a.59.59,0,0,0,.28-.05.5.5,0,0,0,.19-.13.77.77,0,0,0,.14-.21q.06-.12.12-.27l.18-.47-1.68-4.2Z"/><path class="cls-5" d="M99.37,46.19a1.89,1.89,0,0,1,.63.48,2.11,2.11,0,0,1,.38.71,2.67,2.67,0,0,1,.13.86,2.71,2.71,0,0,1-.13.86,2.21,2.21,0,0,1-.38.71,1.74,1.74,0,0,1-.63.47,2.1,2.1,0,0,1-1.7,0,1.74,1.74,0,0,1-.63-.47,2.21,2.21,0,0,1-.38-.71,2.71,2.71,0,0,1-.13-.86,2.67,2.67,0,0,1,.13-.86,2.11,2.11,0,0,1,.38-.71,2,2,0,0,1,2.33-.48Zm-1.49.41a1.52,1.52,0,0,0-.47.4,1.93,1.93,0,0,0-.27.58,2.11,2.11,0,0,0-.1.66,2.05,2.05,0,0,0,.1.65,1.82,1.82,0,0,0,.27.58,1.42,1.42,0,0,0,.47.41,1.32,1.32,0,0,0,.64.15,1.36,1.36,0,0,0,.65-.15,1.5,1.5,0,0,0,.46-.41,1.82,1.82,0,0,0,.27-.58,2.05,2.05,0,0,0,.1-.65,2.11,2.11,0,0,0-.1-.66,1.93,1.93,0,0,0-.27-.58,1.6,1.6,0,0,0-.46-.4,1.25,1.25,0,0,0-.65-.16A1.22,1.22,0,0,0,97.88,46.6Z"/><path class="cls-5" d="M109,50.34v-.76h0a1.44,1.44,0,0,1-.59.65,1.7,1.7,0,0,1-.86.23,2,2,0,0,1-.69-.11,1.2,1.2,0,0,1-.71-.81,2.32,2.32,0,0,1-.08-.67V46.13h.51v2.74a1.35,1.35,0,0,0,.27.87,1.34,1.34,0,0,0,1.43.15,1.09,1.09,0,0,0,.39-.38,1.63,1.63,0,0,0,.23-.54,2.65,2.65,0,0,0,.07-.63V46.13h.52v4.21Z"/><path class="cls-5" d="M115.61,46.13v1h0a1.61,1.61,0,0,1,.6-.79,1.64,1.64,0,0,1,1-.26v.52a1.63,1.63,0,0,0-.64.09,1.49,1.49,0,0,0-.49.32,1.37,1.37,0,0,0-.33.48,1.8,1.8,0,0,0-.11.62v2.24h-.51V46.13Z"/><path class="cls-5" d="M129.83,49a1.48,1.48,0,0,0,.25.54,1.35,1.35,0,0,0,.43.39,1.45,1.45,0,0,0,1.51-.14,1.58,1.58,0,0,0,.44-.78H133a1.94,1.94,0,0,1-.6,1.11,1.78,1.78,0,0,1-1.23.39,1.91,1.91,0,0,1-.86-.18,1.49,1.49,0,0,1-.6-.48,2,2,0,0,1-.33-.71,3,3,0,0,1-.11-.85,2.85,2.85,0,0,1,.11-.82,2.11,2.11,0,0,1,.33-.71,1.76,1.76,0,0,1,.6-.51,1.79,1.79,0,0,1,.86-.19,1.76,1.76,0,0,1,.86.2,1.8,1.8,0,0,1,.59.54,2.26,2.26,0,0,1,.32.76,3.57,3.57,0,0,1,.08.87h-3.24A2.37,2.37,0,0,0,129.83,49Zm2.54-1.57a1.59,1.59,0,0,0-.26-.48,1.23,1.23,0,0,0-.42-.33,1.12,1.12,0,0,0-.55-.13,1.24,1.24,0,0,0-1,.46,1.64,1.64,0,0,0-.28.48,2.83,2.83,0,0,0-.13.56h2.73A1.8,1.8,0,0,0,132.37,47.38Z"/><path class="cls-5" d="M138.49,46.13l1.39,3.59,1.3-3.59h.51L139.87,51a4.78,4.78,0,0,1-.22.45.84.84,0,0,1-.21.27.69.69,0,0,1-.28.15,1.5,1.5,0,0,1-.4,0l-.25,0-.15,0v-.43l.18,0h.17a.63.63,0,0,0,.29-.05.59.59,0,0,0,.19-.13,1.1,1.1,0,0,0,.14-.21c0-.08.08-.17.12-.27l.18-.47L138,46.13Z"/><path class="cls-5" d="M147.32,49a1.48,1.48,0,0,0,.25.54,1.35,1.35,0,0,0,.43.39,1.45,1.45,0,0,0,1.51-.14A1.58,1.58,0,0,0,150,49h.51a2.06,2.06,0,0,1-.6,1.11,1.78,1.78,0,0,1-1.23.39,2,2,0,0,1-.87-.18,1.53,1.53,0,0,1-.59-.48,2.23,2.23,0,0,1-.34-.71,3.35,3.35,0,0,1-.11-.85,3.24,3.24,0,0,1,.11-.82,2.34,2.34,0,0,1,.34-.71,1.7,1.7,0,0,1,1.46-.7,1.66,1.66,0,0,1,1.45.74,2.26,2.26,0,0,1,.32.76,3.57,3.57,0,0,1,.08.87h-3.24A2,2,0,0,0,147.32,49Zm2.54-1.57a1.59,1.59,0,0,0-.26-.48,1.34,1.34,0,0,0-.42-.33,1.12,1.12,0,0,0-.55-.13,1.17,1.17,0,0,0-.57.13,1.2,1.2,0,0,0-.41.33,1.64,1.64,0,0,0-.28.48,2.83,2.83,0,0,0-.13.56H150A1.8,1.8,0,0,0,149.86,47.38Z"/><path class="cls-5" d="M158.33,47a.85.85,0,0,0-.24-.29,1.2,1.2,0,0,0-.34-.17,1.86,1.86,0,0,0-.42-.05,1.39,1.39,0,0,0-.35,0,1,1,0,0,0-.32.12.66.66,0,0,0-.24.23.59.59,0,0,0-.09.34.48.48,0,0,0,.09.29.85.85,0,0,0,.22.2,1.2,1.2,0,0,0,.28.13l.29.09.68.15a2.2,2.2,0,0,1,.44.12,1.33,1.33,0,0,1,.38.23,1,1,0,0,1,.28.34,1.2,1.2,0,0,1-.05,1.06,1.27,1.27,0,0,1-.4.4,1.6,1.6,0,0,1-.54.21,2.46,2.46,0,0,1-.6.07,2,2,0,0,1-1.2-.35,1.52,1.52,0,0,1-.53-1.13h.52a1,1,0,0,0,.38.79,1.34,1.34,0,0,0,.86.26,1.84,1.84,0,0,0,.39,0,1,1,0,0,0,.37-.14.92.92,0,0,0,.28-.24.68.68,0,0,0,.11-.38.59.59,0,0,0-.08-.31.6.6,0,0,0-.21-.21,1.13,1.13,0,0,0-.29-.15l-.34-.09-.67-.15a3.1,3.1,0,0,1-.46-.15,1.63,1.63,0,0,1-.37-.21.93.93,0,0,1-.25-.31,1.08,1.08,0,0,1-.09-.46,1,1,0,0,1,.14-.54,1.09,1.09,0,0,1,.37-.37,2.28,2.28,0,0,1,.51-.21,2.74,2.74,0,0,1,.56-.06,2.29,2.29,0,0,1,.6.08,1.38,1.38,0,0,1,.48.25,1.27,1.27,0,0,1,.33.43,1.76,1.76,0,0,1,.14.59h-.52A.92.92,0,0,0,158.33,47Z"/><polygon class="cls-4" points="26.4 17.34 38.91 17.34 38.91 11.66 0 11.66 0 50.56 38.91 50.56 38.91 44.88 26.4 44.88 26.4 17.34"/><polygon class="cls-6" points="26.4 17.34 38.91 17.34 38.91 11.66 6.9 7.77 6.9 54.45 38.91 50.56 38.91 44.88 26.4 44.88 26.4 17.34"/><polygon class="cls-7" points="26.4 17.34 38.91 17.34 38.91 11.66 13.79 3.89 13.79 58.34 38.91 50.56 38.91 44.88 26.4 44.88 26.4 17.34"/><polygon class="cls-7" points="26.4 17.34 38.91 17.34 38.91 11.66 20.69 0 20.69 62.22 38.91 50.56 38.91 44.88 26.4 44.88 26.4 17.34"/><g class="cls-8"><polygon class="cls-1" points="178.2 17.34 165.69 17.34 165.69 11.66 183.91 11.66 183.91 50.56 165.69 50.56 165.69 44.88 178.2 44.88 178.2 17.34"/></g></svg>