<svg xmlns="http://www.w3.org/2000/svg" viewBox="0 0 188 63.09883"><title>logo-outsmart</title><path d="M89.29943,23.03766a9.51978,9.51978,0,0,0-1.5279-2.07409A9.06779,9.06779,0,0,0,85.741,19.38822a10.1572,10.1572,0,0,0-2.48179-1.00537,11.3087,11.3087,0,0,0-2.8895-.35625,10.83325,10.83325,0,0,0-4.172.77581,9.51268,9.51268,0,0,0-3.22985,2.15326,9.73,9.73,0,0,0-2.086,3.27341,11.77315,11.77315,0,0,0,0,8.21721,9.69138,9.69138,0,0,0,2.086,3.27344A9.523,9.523,0,0,0,76.19778,37.877a11.70416,11.70416,0,0,0,8.35975,0,9.45141,9.45141,0,0,0,3.22192-2.15722,9.59376,9.59376,0,0,0,2.07013-3.27344,11.2117,11.2117,0,0,0,.7323-4.1086,11.87185,11.87185,0,0,0-.3246-2.81823A10.22194,10.22194,0,0,0,89.29943,23.03766Zm-3.00034,8.28056a6.33846,6.33846,0,0,1-1.2666,2.2324,5.48964,5.48964,0,0,1-2.00287,1.40122,7.49875,7.49875,0,0,1-5.31583,0A5.51965,5.51965,0,0,1,75.703,33.55062a6.23364,6.23364,0,0,1-1.27452-2.2324,9.17567,9.17567,0,0,1-.44723-2.98053,9.16783,9.16783,0,0,1,.44723-2.97657A6.30375,6.30375,0,0,1,75.703,23.12079a5.49175,5.49175,0,0,1,2.01079-1.40911,7.442,7.442,0,0,1,5.31583,0,5.4621,5.4621,0,0,1,2.00287,1.40911,6.41064,6.41064,0,0,1,1.2666,2.24033,10.14,10.14,0,0,1,0,5.9571Zm15.0563-7.20723h3.44642V38.4262h-2.10705a.81146.81146,0,0,1-.86508-.62775l-.23733-1.14416a7.693,7.693,0,0,1-1.93929,1.44412,5.34892,5.34892,0,0,1-2.49745.55121,5.08112,5.08112,0,0,1-2.07186-.39775,4.14982,4.14982,0,0,1-1.51409-1.12329,4.9113,4.9113,0,0,1-.9277-1.72321,7.28409,7.28409,0,0,1-.31387-2.19749V24.111h3.446v9.09689a3.0568,3.0568,0,0,0,.60726,2.03012,2.24833,2.24833,0,0,0,1.82061.71858,3.64009,3.64009,0,0,0,1.6745-.39775,5.86433,5.86433,0,0,0,1.47891-1.09508Zm63.498,1.28972a4.78974,4.78974,0,0,0-1.67431-1.14392,5.837,5.837,0,0,0-2.24823-.41164,8.50175,8.50175,0,0,0-5.94125,2.26011l.61354,1.10435a1.62991,1.62991,0,0,0,.40374.43936,1.00823,1.00823,0,0,0,.6135.186,1.48761,1.48761,0,0,0,.76-.194q.34433-.1959.75994-.43935a5.98364,5.98364,0,0,1,.96978-.43936,4.20032,4.20032,0,0,1,1.38928-.19791,2.25835,2.25835,0,0,1,1.77332.69269,3.14484,3.14484,0,0,1,.61349,2.12951v.83517a22.223,22.223,0,0,0-2.90134.24541,13.95057,13.95057,0,0,0-2.22847.52248,6.93957,6.93957,0,0,0-1.611.75207,4.97785,4.97785,0,0,0-1.06473.92224,3.08627,3.08627,0,0,0-.59373,1.02518,3.32969,3.32969,0,0,0-.18206,1.08058,4.29311,4.29311,0,0,0,.30875,1.69016,3.24122,3.24122,0,0,0,.86286,1.2112,3.63722,3.63722,0,0,0,1.326.73226,5.38225,5.38225,0,0,0,1.67431.2454,6.97124,6.97124,0,0,0,1.40122-.1306,6.03357,6.03357,0,0,0,1.19533-.384,6.502,6.502,0,0,0,1.0727-.62144,12.64649,12.64649,0,0,0,1.06077-.85892l.30875,1.03309a1.01851,1.01851,0,0,0,.41563.59373,1.61952,1.61952,0,0,0,.756.14645h1.55951v-9.0405a6.80638,6.80638,0,0,0-.35224-2.23243A4.92879,4.92879,0,0,0,164.85337,25.40071Zm-1.96721,9.32947a5.51778,5.51778,0,0,1-1.516,1.16371,4.06263,4.06263,0,0,1-1.83265.38393,2.31375,2.31375,0,0,1-1.40121-.39186,1.69146,1.69146,0,0,1-.2731-2.14929,2.17648,2.17648,0,0,1,.87871-.68082,6.6164,6.6164,0,0,1,1.63082-.48289,19.02829,19.02829,0,0,1,2.5134-.25729Zm12.91959-10.94971a2.66291,2.66291,0,0,1,1.59062.43255l-.22342,2.58094a.66749.66749,0,0,1-.20216.356.56019.56019,0,0,1-.35562.10476,4.04151,4.04151,0,0,1-.62117-.07,4.81147,4.81147,0,0,0-.80208-.06958,2.885,2.885,0,0,0-1.01854.16738,2.56487,2.56487,0,0,0-.80246.48124,3.28883,3.28883,0,0,0-.62774.76033,7.46249,7.46249,0,0,0-.50947,1.01854v8.81819h-3.446V24.04564h2.02316a.83323.83323,0,0,1,1.01854.8647l.20912,1.61884a6.17209,6.17209,0,0,1,1.59062-2.01621A3.38939,3.38939,0,0,1,175.80575,23.78047ZM188,37.37983a5.20907,5.20907,0,0,1-1.73016.94857,6.4323,6.4323,0,0,1-2.02278.32122,3.76036,3.76036,0,0,1-2.86737-1.05371,4.05887,4.05887,0,0,1-.99766-2.90912V26.69194h-1.465a.67026.67026,0,0,1-.47429-.18129.70544.70544,0,0,1-.19559-.54425V24.5992l2.30225-.37688.72554-3.90679a.76557.76557,0,0,1,.26517-.43254.79022.79022,0,0,1,.50211-.15345h1.78622v4.50669h3.8229v2.45571h-3.8229v7.7579a1.54082,1.54082,0,0,0,.32778,1.04637,1.12974,1.12974,0,0,0,.89987.37649,1.62862,1.62862,0,0,0,.5373-.07654,2.96024,2.96024,0,0,0,.37649-.16041q.16061-.08407.286-.16042a.48112.48112,0,0,1,.25125-.07692.3958.3958,0,0,1,.25126.07692,1.17731,1.17731,0,0,1,.20912.23ZM152.00905,27.0117a7.45587,7.45587,0,0,1,.32856,2.30367v9.11175H148.89V29.31537a3.06365,3.06365,0,0,0-.59769-2.05826,2.2066,2.2066,0,0,0-1.75746-.69269,2.67736,2.67736,0,0,0-.98559.18207,2.38576,2.38576,0,0,0-.7956.52644,2.3321,2.3321,0,0,0-.53434.855,3.33245,3.33245,0,0,0-.19791,1.18745v9.11175H140.562V29.31537a3.13619,3.13619,0,0,0-.57788-2.0939,2.15768,2.15768,0,0,0-1.69808-.65705,2.80115,2.80115,0,0,0-1.40122.37208,4.61138,4.61138,0,0,0-1.20727,1.01329V38.42712h-3.4436V24.11034h2.10578a.84533.84533,0,0,1,.87871.62936l.22163,1.0608a8.43692,8.43692,0,0,1,.78773-.76789,5.26452,5.26452,0,0,1,.88267-.60166,4.63138,4.63138,0,0,1,1.00138-.39582,4.43735,4.43735,0,0,1,1.17958-.14645,3.33732,3.33732,0,0,1,2.22842.73226,4.43283,4.43283,0,0,1,1.30226,1.94348,4.36051,4.36051,0,0,1,.83914-1.21913,4.50163,4.50163,0,0,1,1.10039-.83121,5.11166,5.11166,0,0,1,1.27848-.475,6.31382,6.31382,0,0,1,1.35769-.15042,5.75,5.75,0,0,1,2.10969.36019,4.111,4.111,0,0,1,1.54767,1.06081A4.66607,4.66607,0,0,1,152.00905,27.0117ZM130.07664,29.971a5.1638,5.1638,0,0,1,.39737,2.13449,6.95854,6.95854,0,0,1-.46733,2.56046c-.05354.13666-.11712.26615-.17916.39676a5.87479,5.87479,0,0,1-1.18765,1.6822c-.07267.07122-.15327.13488-.22975.2025a6.06015,6.06015,0,0,1-.78845.59977,6.475,6.475,0,0,1-2.15937.88378,8.88564,8.88564,0,0,1-1.99244.21869,9.61576,9.61576,0,0,1-1.24756-.08376c-.21806-.02807-.43554-.06069-.65171-.10311a9.952,9.952,0,0,1-1.78911-.53831l-.00068-.00031-.00126-.00044-.01256-.00579c-.16172-.06635-.31783-.14022-.47143-.21751a9.51284,9.51284,0,0,1-1.1275-.61395l-.00164-.00118c-1.0053-.53826-1.0053-.53826-2.13333.293a4.82536,4.82536,0,0,1-.72438.50267,5.35423,5.35423,0,0,1-1.0054.44728,6.4548,6.4548,0,0,1-2.02258.32061,3.77159,3.77159,0,0,1-2.86969-1.05286,4.05526,4.05526,0,0,1-.99747-2.90929V26.69109H106.949a.667.667,0,0,1-.475-.18209.69854.69854,0,0,1-.194-.54227V24.60115l2.3037-.38.72438-3.90676a.76749.76749,0,0,1,.26516-.43143.78536.78536,0,0,1,.5027-.15437h1.78515V24.237h4.02941a8.36217,8.36217,0,0,0,.43138,2.45408h-4.46079v7.75805a1.55608,1.55608,0,0,0,.32851,1.04893,1.13361,1.13361,0,0,0,.89852.376,1.62655,1.62655,0,0,0,.53831-.07915,3.16892,3.16892,0,0,0,.376-.15833,2.61218,2.61218,0,0,0,.285-.16228c.01981-.01189.03565-.02375.0515-.03167,3.07127-1.982,3.68206-2.52439,5.15324-1.43676.00981.00674.01928.01136.02913.01837.20023.14113.43815.29814.69481.46281.08968.05716.17289.11159.26991.17186.073.04632.15075.091.229.13549q.21483.12142.45434.23453c.19457.09159.39944.17972.61885.26328.10383.04037.21448.07391.32692.10575a5.4337,5.4337,0,0,0,1.46639.18172,3.67933,3.67933,0,0,0,2.48354-.76071,2.72919,2.72919,0,0,0,.879-2.18319,2.27121,2.27121,0,0,0-.17694-.91294,1.72824,1.72824,0,0,0-.22115-.38486,2.75408,2.75408,0,0,0-.1896-.2132,3.08071,3.08071,0,0,0-.376-.32375,3.62781,3.62781,0,0,0-.48734-.30614,7.10673,7.10673,0,0,0-.95775-.409c-.1725-.06049-.34924-.11859-.53517-.17138-.04445-.01256-.09093-.02832-.13548-.041-.49391-.13891-.99574-.29155-1.50162-.45484-.02208-.0071-.0431-.01261-.06523-.01976-.19361-.06255-.38461-.13541-.57614-.20632-.37862-.13968-.75439-.28959-1.12489-.463-.0445-.02082-.08615-.04534-.12988-.06716a5.49214,5.49214,0,0,1-1.3067-.9012c-.01812-.01681-.03774-.03181-.05562-.04889l-.00058-.00063-.00135-.00119c-.02126-.02034-.03972-.044-.06054-.06481a4.64231,4.64231,0,0,1-.99443-1.50476,5.35955,5.35955,0,0,1-.37239-1.69035c-.01512-.20311-.02372-.41341-.02372-.63333a5.49031,5.49031,0,0,1,.41341-2.077c.00966-.024.01628-.04818.02628-.07212a5.49807,5.49807,0,0,1,1.04212-1.605c.07721-.0838.15133-.16945.23444-.24977a6.26321,6.26321,0,0,1,2.06491-1.298,6.33154,6.33154,0,0,1,.76013-.24118,8.16892,8.16892,0,0,1,2.05737-.24763,9.41357,9.41357,0,0,1,3.2932.55809,7.76209,7.76209,0,0,1,1.85042.98052c.052.03742.10872.07013.1595.10878a6.91684,6.91684,0,0,1,.55894.4742l-.93413,1.77326a1.89126,1.89126,0,0,1-.14137.20327,1.16516,1.16516,0,0,1-.10128.11256.9752.9752,0,0,1-.11359.1077.77558.77558,0,0,1-.46709.13459,1.19315,1.19315,0,0,1-.63722-.2177c-.0961-.06071-.2052-.12674-.31822-.19431-.15249-.09088-.31537-.18566-.49709-.28742a6.47242,6.47242,0,0,0-.8244-.37134c-.09494-.03622-.18279-.07473-.284-.10877-.05093-.01758-.1064-.03061-.15945-.046a4.83848,4.83848,0,0,0-1.3413-.17117,5.12674,5.12674,0,0,0-.86537.07079,3.65933,3.65933,0,0,0-.50357.11871,2.93381,2.93381,0,0,0-.98162.52249,2.08052,2.08052,0,0,0-.59373.8035c-.02387.05636-.043.11519-.06238.17389-.01242.03772-.02445.07562-.03513.11415a2.772,2.772,0,0,0-.09644.73714,2.06873,2.06873,0,0,0,.08881.61185,1.63372,1.63372,0,0,0,.26792.51536c.01406.01812.02416.0387.03909.05629a3.1863,3.1863,0,0,0,.80362.66917c.08088.04861.16264.09671.25038.14157l.04078.01957a9.95006,9.95006,0,0,0,1.45031.5788c.55812.17813,1.13208.36811,1.71789.566a16.59175,16.59175,0,0,1,1.71784.69665,5.98786,5.98786,0,0,1,1.49225,1.00537,4.30375,4.30375,0,0,1,.51395.5788A4.79359,4.79359,0,0,1,130.07664,29.971Z" fill="#333"></path><path d="M52.7488,37.08889,46.25876.944,46.2567.93158A1.11512,1.11512,0,0,0,44.41693.302l-13.266,11.86209a1.05765,1.05765,0,0,0,1.4047,1.58153L44.39643,3.29908,49.582,33.51588,46.28663,29.567a1.91148,1.91148,0,0,0-.2262-.2263,1.78512,1.78512,0,1,0-2.28875,2.74012l4.9367,4.12351-12.9166-.20556C38.50225,26.7624,40.958,18.39393,40.958,18.39393l.00412-.01347a1.05767,1.05767,0,0,0-2.02327-.6154l-.02022.06139h0c-.01217.037-2.88024,8.7359-5.97654,18.127l-13.07353-.208-2.73576-9.307c-.0061-.02038-.01458-.04757-.02145-.06789A1.7783,1.7783,0,1,0,13.742,27.50926l2.76563,8.18265-6.72267-.107c-.01786-.0002-.04342-.00025-.06139.00009a1.7782,1.7782,0,0,0,.06618,3.55579L17.624,38.995l6.13865,18.16242L3.17487,36.7833,8.809,4.86165,25.21173,19.168l.01228.01062a1.778,1.778,0,0,0,2.31276-2.701L8.7704.40876,8.75476.395a1.6621,1.6621,0,0,0-2.71419.99041L.02311,37.04642l-.00359.02066a1.51591,1.51591,0,0,0,.43905,1.33046L25.39766,62.69732l.00906.00885a1.38836,1.38836,0,0,0,1.93833-.00318L52.38579,38.20957l.01258-.01218A1.24784,1.24784,0,0,0,52.7488,37.08889Zm-4.20909,1.33058L29.779,56.48849c1.18774-4.04744,3.21991-10.97232,5.22855-17.81712Zm-16.512.30737c-2.41246,7.317-4.80715,14.5801-5.96485,18.09142L20.80636,38.93573Z" fill="#f04c23"></path></svg>
